# Blender 4.0.2
# www.blender.org
mtllib Cajas.mtl
o Cube.014
v -46.630341 -3.764529 -26.473419
v -46.670250 -0.457100 -26.439964
v -45.835648 -3.840766 -29.722202
v -45.747738 -0.528019 -29.595921
v -43.384315 -3.803681 -25.657154
v -43.549522 -0.697693 -25.895605
v -42.513943 -3.840691 -28.870266
v -42.510971 -0.415174 -28.869457
vn -0.9657 0.0133 -0.2592
vn 0.2337 0.0152 -0.9722
vn 0.9546 0.0345 0.2959
vn -0.2079 0.0246 0.9778
vn -0.0098 -0.9998 0.0150
vn 0.0124 0.9992 0.0385
vt 0.761090 0.245955
vt 0.763478 0.059342
vt 0.578063 0.063344
vt 0.572394 0.250257
vt 1.144719 0.379163
vt 1.138144 0.192250
vt 0.951061 0.185883
vt 0.951235 0.379159
vt 1.080202 0.465096
vt 1.080204 0.271821
vt 1.257293 0.287761
vt 1.268009 0.463008
vt 0.293604 0.490352
vt 0.305976 0.315105
vt 0.484165 0.301530
vt 0.482453 0.488143
vt 1.144719 0.191016
vt 0.951235 0.191011
vt 0.953761 0.378819
vt 1.142609 0.379712
vt 0.540905 0.546482
vt 0.727988 0.552154
vt 0.734165 0.737569
vt 0.555976 0.723572
s 1
usemtl Cardboard_torn
f 1/1/1 2/2/1 4/3/1 3/4/1
f 3/5/2 4/6/2 8/7/2 7/8/2
f 7/9/3 8/10/3 6/11/3 5/12/3
f 5/13/4 6/14/4 2/15/4 1/16/4
f 3/17/5 7/18/5 5/19/5 1/20/5
f 8/21/6 4/22/6 2/23/6 6/24/6
o Cube.015
v -42.857964 -3.840673 -27.228327
v -42.857822 -0.412537 -27.229574
v -40.917583 -3.840706 -30.055815
v -40.917583 -0.411366 -30.055815
v -40.061436 -3.849009 -25.453476
v -40.175934 -0.905259 -26.042398
v -38.090870 -3.840769 -28.120255
v -38.095287 -0.431549 -28.143854
vn -0.8245 -0.0001 -0.5659
vn 0.5629 -0.0025 -0.8265
vn 0.7560 0.0768 0.6501
vn -0.4692 0.0731 0.8801
vn -0.0003 -1.0000 -0.0017
vn 0.0265 0.9927 0.1173
vt 0.652793 0.604245
vt 0.652958 1.114268
vt 1.162982 1.114443
vt 1.162982 0.604240
vt -0.035278 0.751887
vt -0.035278 1.262090
vt 0.471882 1.259087
vt 0.474410 0.751878
vt 1.174466 -0.948261
vt 1.175735 -0.693186
vt 0.958012 -0.728628
vt 0.926528 -0.948878
vt 0.213816 1.211324
vt 0.188904 1.382813
vt 0.020952 1.411517
vt 0.020986 1.211810
vt 0.678349 1.091987
vt 1.188037 1.092501
vt 1.170793 0.599484
vt 0.678336 0.581798
vt 1.185509 1.095024
vt 0.678248 0.581963
vt 1.107173 0.662090
s 1
usemtl Cardboard_torn
f 9/25/7 10/26/7 12/27/7 11/28/7
f 11/29/8 12/30/8 16/31/8 15/32/8
f 15/33/9 16/34/9 14/35/9 13/36/9
f 13/37/10 14/38/10 10/39/10 9/40/10
f 11/41/11 15/42/11 13/43/11 9/44/11
f 16/45/12 12/41/12 10/46/12 14/47/12
o Cube.016
v -44.653370 -0.425206 -28.585218
v -44.479950 2.203821 -28.450058
v -41.974571 -0.425665 -29.439854
v -42.010986 2.218685 -29.273346
v -43.735367 -0.311921 -26.041311
v -43.787617 2.376260 -25.901873
v -41.139927 -0.341283 -26.839945
v -41.168728 2.346339 -26.747154
vn -0.3095 0.0623 -0.9489
vn 0.9498 0.0268 -0.3118
vn 0.3001 -0.0367 0.9532
vn -0.9535 0.0062 0.3012
vn 0.0058 -0.9993 0.0364
vn -0.0149 0.9984 -0.0545
vt 0.205279 0.509250
vt 0.226664 0.962210
vt 0.675036 0.964772
vt 0.689735 0.509171
vt 0.678515 0.662162
vt 0.694462 0.947940
vt 0.982220 0.961735
vt 0.973613 0.671281
vt 0.646246 0.449886
vt 0.636658 0.912942
vt 0.162526 0.918097
vt 0.178407 0.454944
vt -0.026418 -0.258683
vt -0.006268 0.204470
vt -0.460783 0.174760
vt -0.492052 -0.278201
vt 0.204395 0.987090
vt 0.674855 0.987895
vt 0.669983 0.520055
vt 0.204349 0.502634
vt 0.782228 0.454035
vt 0.604669 0.451745
vt 0.606914 0.278206
vt 0.782831 0.270526
s 1
usemtl Cardboard_torn
f 17/48/13 18/49/13 20/50/13 19/51/13
f 19/52/14 20/53/14 24/54/14 23/55/14
f 23/56/15 24/57/15 22/58/15 21/59/15
f 21/60/16 22/61/16 18/62/16 17/63/16
f 19/64/17 23/65/17 21/66/17 17/67/17
f 24/68/18 20/69/18 18/70/18 22/71/18
